<?xml version="1.0" encoding="utf-8"?>
<?xml-stylesheet type="text/xsl" href="rss1.xsl"?>
<rss version="2.0" xmlns:atom="http://www.w3.org/2005/Atom" xmlns:content="http://purl.org/rss/1.0/modules/content/" xmlns:dc="http://purl.org/dc/elements/1.1/" xmlns:media="http://search.yahoo.com/mrss/">
<channel>
 <title>Getty</title>
 <link>http://www.gettyimg.com/</link>
 <atom:link href="http://www.gettyimg.com/" rel="self" type="application/rss+xml" />

 
                <item>
                <title><![CDATA[【Albums (lossless)】ALAC - Vierra - Love, Love &amp; Love]]></title>
                <link><![CDATA[https://sharemania.us/threads/vierra-love-love-love.238762/]]></link>
                <description><![CDATA[<article>
<blockquote class="messageText SelectQuoteContainer ugc baseHtml">
<img src="https://is1-ssl.mzstatic.com/image/thumb/Music6/v4/b1/18/de/b118dec6-7b4e-6d5c-5511-38af7754835a/Vierra_Love_Love_Love.jpg/1200x1200bb.jpg" class="bbCodeImage LbImage" alt="[​IMG]" data-url="https://is1-ssl.mzstatic.com/image/thumb/Music6/v4/b1/18/de/b118dec6-7b4e-6d5c-5511-38af7754835a/Vierra_Love_Love_Love.jpg/1200x1200bb.jpg" style=""><br>
<br>
<span style="font-size: 18px"><b>Artist: Vierra<br>
Album: Love, Love &amp; Love</b><br>
Countries: Indonesia<br>
Source: Apple Music<br>
Format: Apple Lossless Audio Codec w/ Core Media Audio<br>
.m4a [ALAC, 16bit/44.1kHz, 1.4Mbps]<br>
</span><br>
<br>
<span style="color: #ff0000"><b>Tracklist:</b><br>
</span><br>
<i>1. Takut<br>
2. Terlalu Lama<br>
3. Kesepian<br>
4. Pertemuan Singkat<br>
5. Pertanda Cinta<br>
6. Semua Tentangmu<br>
7. Hidup Matiku<br>
8. Don't Cry<br>
9. Di Sisimu<br>
10. Deg-Degan<br>
11. Kepergianmu<br>
12. Cantik</i><br>
<br>
Link Download:<br>
Google Drive:<br>
<div class="bbCodeBlock bbCodeVfcHH HiddenContent">
<div class="attribution type">Hidden Content:</div>
<blockquote>You must reply before you can see the hidden data contained here.</blockquote>
</div>Terabox:<br>
<div class="bbCodeBlock bbCodeVfcHH HiddenContent">
<div class="attribution type">Hidden Content:</div>
<blockquote>You must reply before you can see the hidden data contained here.</blockquote>
</div>
<div class="messageTextEndMarker">&nbsp;</div>
</blockquote>
</article>]]></description>
                <author><![CDATA[andammm777]]></author>
                </item>

                
                <item>
                <title><![CDATA[【Music Videos】MIKA - Popular Song ft. Ariana Grande (1080P)]]></title>
                <link><![CDATA[https://sharemania.us/threads/mika-popular-song-ft-ariana-grande-1080p.238760/]]></link>
                <description><![CDATA[<article>
<blockquote class="messageText SelectQuoteContainer ugc baseHtml">
<img src="https://i.imgur.com/iIrZ5EJ.jpeg" class="bbCodeImage LbImage" alt="[​IMG]" data-url="https://i.imgur.com/iIrZ5EJ.jpeg" style=""> <br>
<b>MIKA - Popular Song ft. Ariana Grande (1080P)</b><br>
<div class="ToggleTriggerAnchor bbCodeSpoilerContainer">
<button type="button" class="button bbCodeSpoilerButton ToggleTrigger Tooltip JsOnly" data-target="> .SpoilerTarget"><span>Spoiler: <span class="SpoilerTitle">Media Info</span></span></button>
<div class="SpoilerTarget bbCodeSpoilerText">General<br>
Complete name : Popular Song (feat Ariana Grande) (HD).mp4<br>
Format : MPEG-4<br>
Format profile : QuickTime<br>
Codec ID : qt 2005.03 (qt )<br>
File size : 284 MiB<br>
Duration : 3 min 21 s<br>
Overall bit rate mode : Variable<br>
Overall bit rate : 11.8 Mb/s<br>
Movie name : Popular Song (HD)<br>
Album : Yours Truly<br>
Performer : MIKA feat Ariana Grande<br>
Recorded date : 2012<br>
Encoded date : UTC 2013-04-23 03:25:18<br>
Tagged date : UTC 2013-04-23 03:25:26<br>
Writing library : Apple QuickTime<br>
Media/UUID : 9A98EB4B-F992-4032-A910-688E68B6CBB6<br>
Media/History/UUID : FD416563-B2A1-4907-AD78-18C34BF54123<br>
<br>
Video<br>
ID : 1<br>
Format : AVC<br>
Format/Info : Advanced Video Codec<br>
Format profile : Main@L4.1<br>
Format settings, CABAC : No<br>
Format settings, RefFrames : 2 frames<br>
Codec ID : avc1<br>
Codec ID/Info : Advanced Video Coding<br>
Duration : 3 min 21 s<br>
Bit rate mode : Variable<br>
Bit rate : 11.5 Mb/s<br>
Maximum bit rate : 15.4 Mb/s<br>
Width : 1 920 pixels<br>
Height : 808 pixels<br>
Display aspect ratio : 2.40:1<br>
Frame rate mode : Constant<br>
Frame rate : 23.976 (23976/1000) FPS<br>
Color space : YUV<br>
Chroma subsampling : 4:2:0<br>
Bit depth : 8 bits<br>
Scan type : Progressive<br>
Bits/(Pixel*Frame) : 0.309<br>
Stream size : 276 MiB (97%)<br>
Language : English<br>
Encoded date : UTC 2013-04-23 03:25:18<br>
Tagged date : UTC 2013-04-23 03:25:26<br>
Color range : Limited<br>
Color primaries : BT.709<br>
Transfer characteristics : BT.709<br>
Matrix coefficients : BT.709<br>
<br>
Audio<br>
ID : 2<br>
Format : AAC<br>
Format/Info : Advanced Audio Codec<br>
Format profile : LC<br>
Codec ID : 40<br>
Duration : 3 min 21 s<br>
Source duration : 3 min 21 s<br>
Bit rate mode : Constant<br>
Bit rate : 320 kb/s<br>
Channel(s) : 2 channels<br>
Channel positions : Front: L R<br>
Sampling rate : 48.0 kHz<br>
Frame rate : 46.875 FPS (1024 SPF)<br>
Compression mode : Lossy<br>
Stream size : 7.49 MiB (3%)<br>
Source stream size : 7.49 MiB (3%)<br>
Language : English<br>
Encoded date : UTC 2013-04-23 03:25:18<br>
Tagged date : UTC 2013-04-23 03:25:26<br>
<br>
Other<br>
ID : 3<br>
Type : Time code<br>
Format : QuickTime TC<br>
Duration : 3 min 21 s<br>
Time code of first frame : 01:01:00:00<br>
Time code, striped : Yes<br>
Language : English<br>
Encoded date : UTC 2013-04-23 03:25:18<br>
Tagged date : UTC 2013-04-23 03:25:26</div>
</div><br>
<b>[/URL]
<div class="bbCodeBlock bbCodeVfcHH HiddenContent">
<div class="attribution type">Hidden Content:</div>
<blockquote>You must reply before you can see the hidden data contained here.</blockquote>
</div></b>
<div class="messageTextEndMarker">&nbsp;</div>
</blockquote>
</article>]]></description>
                <author><![CDATA[gamerfronts]]></author>
                </item>

                
                <item>
                <title><![CDATA[【Albums (lossless)】ALAC - Vierra - My First Love (Album)]]></title>
                <link><![CDATA[https://sharemania.us/threads/vierra-my-first-love-album.238761/]]></link>
                <description><![CDATA[<article>
<blockquote class="messageText SelectQuoteContainer ugc baseHtml">
<img src="https://is1-ssl.mzstatic.com/image/thumb/Music115/v4/f2/6b/58/f26b584f-aa34-75d8-ab4b-70062312e5d1/Vierra_My_First_Love.jpg/1200x1200bf-60.jpg" class="bbCodeImage LbImage" alt="[​IMG]" data-url="https://is1-ssl.mzstatic.com/image/thumb/Music115/v4/f2/6b/58/f26b584f-aa34-75d8-ab4b-70062312e5d1/Vierra_My_First_Love.jpg/1200x1200bf-60.jpg" style=""><br>
<br>
<span style="font-size: 18px"><b>Artist: Vierra<br>
Album: My First Love</b><br>
Countries: Indonesia<br>
Source: Apple Music<br>
Format: Apple Lossless Audio Codec w/ Core Media Audio<br>
.m4a [ALAC, 16bit/44.1kHz, 1.4Mbps]<br>
</span><br>
<br>
<span style="color: #ff0000"><b>Tracklist:</b><br>
</span><br>
<i>1. Dengarkan Curhatku<br>
2. Perih<br>
3. Bersamamu<br>
4. No!<br>
5. Terbang<br>
6. To Nessa<br>
7. Rasa Ini<br>
8. Jadi Yang Kuinginkan<br>
9. Tears<br>
10. Manusia<br>
11. Seandainya<br>
12. Bintang</i><br>
<br>
Link Download:<br>
Google Drive:<br>
<div class="bbCodeBlock bbCodeVfcHH HiddenContent">
<div class="attribution type">Hidden Content:</div>
<blockquote>You must reply before you can see the hidden data contained here.</blockquote>
</div>Terabox:<br>
<div class="bbCodeBlock bbCodeVfcHH HiddenContent">
<div class="attribution type">Hidden Content:</div>
<blockquote>You must reply before you can see the hidden data contained here.</blockquote>
</div>
<div class="messageTextEndMarker">&nbsp;</div>
</blockquote>
</article>]]></description>
                <author><![CDATA[andammm777]]></author>
                </item>

                </channel></rss>